<svg
  width="100%"
  height="2.2em"
  viewBox="0 -10 340 80"
  class="css-1j8o68f"
>
  <defs id="SvgjsDefs24043"></defs>
  <g
    id="SvgjsG24044"
    featurekey="LwVBM5-0"
    transform="matrix(1.143367069616099,0,0,1.143367069616099,6.675555413582482,0.02013828969380338)"
    fill="#3a3a3a"
  >
    <g xmlns="http://www.w3.org/2000/svg">
      <path
        fill="#3a3a3a"
        d="M42.78,28.756c-0.052,0.167-0.116,0.335-0.18,0.502c-0.296,0.695-0.695,1.288-1.262,1.751   c-0.245,1.996-0.683,3.953-1.326,5.859c-0.412,1.21-1.378,1.571-2.511,1.004c-0.283-0.142-0.579-0.258-0.863-0.399   c-2.846-1.352-5.692-2.717-8.538-4.056c-1.095-0.515-2.279-0.657-3.541-0.695c0.051,0.966,0.425,1.764,0.914,2.485   c0.592,0.914,1.082,1.854,1.249,2.936c0.142,0.824-0.283,1.417-1.107,1.571c-0.914,0.167-1.829,0.335-2.756,0.502   c-0.927,0.18-1.494-0.193-1.674-1.133c-0.438-2.279-0.85-4.571-1.275-6.851c-0.026-0.116-0.064-0.258-0.142-0.322   c-0.914-0.708-1.455-1.635-1.803-2.704c-0.013-0.039-0.026-0.077-0.039-0.116c0-0.026-0.013-0.039-0.013-0.064   c-0.296-1.017-0.18-1.996,0.039-2.756c0.232-0.837,0.592-1.416,0.644-1.507c0.013-0.013,0.013-0.013,0.013-0.013   c0.026-0.052,0.051-0.09,0.077-0.142c0.811-1.352,2.022-2.06,3.644-2.035c1.03,0.013,2.073-0.026,3.116-0.052   c1.558-0.051,2.91-0.747,4.275-1.404c2.653-1.275,5.305-2.537,7.971-3.799c0.953-0.451,1.944,0,2.305,1.069   c0.708,2.125,1.185,4.275,1.404,6.464c0.592,0.502,1.004,1.172,1.301,1.957c0,0,0,0,0,0.013   C42.742,26.953,42.986,27.919,42.78,28.756z"
      ></path>
      <g>
        <g>
          <g>
            <path
              fill="#3a3a3a"
              d="M16.69,7.63c1.369,1.497,1.554,3.724,0.435,5.412c-0.168,0.26-0.359,0.497-0.59,0.725l-0.104,0.102      c-0.239,0.22-0.533,0.432-0.875,0.628c-1.78,0.971-3.995,0.61-5.364-0.887c-1.621-1.768-1.557-4.46,0.124-6.121l0.135-0.118      c0.852-0.795,1.979-1.216,3.175-1.169C14.797,6.257,15.895,6.762,16.69,7.63z"
            ></path>
          </g>
        </g>
      </g>
      <g>
        <path
          fill="#3a3a3a"
          d="M24.373,19.999c-0.542,0.01-1.083,0.02-1.615,0.02h-0.511c-0.368,0-0.736,0.031-1.083,0.082l-4.854-4.885    c0.072-0.031,0.143-0.061,0.204-0.102c0.348-0.194,0.644-0.409,0.879-0.634l0.102-0.102c0.235-0.225,0.429-0.46,0.593-0.715    L24.373,19.999z"
        ></path>
      </g>
      <g>
        <g>
          <g>
            <path
              fill="#3a3a3a"
              d="M50.708,4.953c-1.35,1.514-1.507,3.743-0.367,5.417c0.171,0.258,0.366,0.492,0.6,0.718l0.105,0.101      c0.242,0.217,0.539,0.426,0.883,0.617c1.792,0.949,4.003,0.559,5.353-0.955c1.598-1.788,1.501-4.479-0.201-6.119l-0.137-0.116      c-0.862-0.784-1.994-1.191-3.189-1.129C52.583,3.556,51.492,4.075,50.708,4.953z"
            ></path>
          </g>
        </g>
      </g>
      <g>
        <path
          fill="#3a3a3a"
          d="M51.179,12.539l-7.89,8.104c-0.204-0.869-0.45-1.758-0.736-2.626l6.837-7.021    c0.164,0.266,0.358,0.501,0.593,0.715l0.112,0.102c0.235,0.225,0.531,0.429,0.879,0.623    C51.046,12.467,51.118,12.508,51.179,12.539z"
        ></path>
      </g>
      <g>
        <g>
          <g>
            <path
              fill="#3a3a3a"
              d="M60.294,33.879c-1.839-0.856-4.019-0.362-5.292,1.212c-0.198,0.238-0.366,0.492-0.514,0.781      l-0.066,0.129c-0.138,0.294-0.252,0.639-0.336,1.023c-0.391,1.99,0.62,3.994,2.459,4.849c2.173,1.014,4.722,0.144,5.801-1.958      l0.072-0.165c0.502-1.052,0.564-2.253,0.16-3.379C62.173,35.271,61.36,34.376,60.294,33.879z"
            ></path>
          </g>
        </g>
      </g>
      <g>
        <path
          fill="#3a3a3a"
          d="M54.123,34.358c-0.194,0.235-0.368,0.491-0.511,0.787l-0.072,0.123c-0.133,0.296-0.245,0.644-0.337,1.022   c-0.01,0.082-0.02,0.153-0.031,0.235l-8.953-4.936c0.286-0.419,0.542-0.879,0.766-1.41c0.082-0.215,0.164-0.439,0.235-0.664    l0.01-0.02L54.123,34.358z"
        ></path>
      </g>
      <g>
        <g>
          <g>
            <path
              fill="#3a3a3a"
              d="M7.626,42.952c1.797-0.941,2.729-2.972,2.252-4.94c-0.069-0.302-0.169-0.589-0.308-0.883l-0.063-0.131      c-0.15-0.289-0.354-0.588-0.609-0.889c-1.343-1.519-3.549-1.934-5.346-0.992c-2.126,1.11-2.983,3.663-1.968,5.798l0.087,0.157      c0.531,1.037,1.447,1.817,2.587,2.18C5.379,43.599,6.583,43.497,7.626,42.952z"
            ></path>
          </g>
        </g>
      </g>
      <g>
        <path
          fill="#3a3a3a"
          d="M17.74,34.573l-6.745,3.189c-0.072-0.307-0.174-0.593-0.307-0.889l-0.072-0.123    c-0.143-0.296-0.347-0.593-0.603-0.889c-0.051-0.061-0.102-0.123-0.164-0.174l6.898-3.25c0.235,0.327,0.491,0.623,0.766,0.899    L17.74,34.573z"
        ></path>
      </g>
      <g>
        <g>
          <g>
            <path
              fill="#3a3a3a"
              d="M40.088,55.327c-0.358-1.997-2.015-3.496-4.035-3.632c-0.309-0.025-0.613-0.016-0.935,0.029l-0.144,0.02      c-0.32,0.056-0.667,0.161-1.031,0.313c-1.853,0.824-2.911,2.804-2.553,4.801c0.42,2.361,2.598,3.946,4.938,3.619l0.176-0.036      c1.149-0.194,2.168-0.834,2.857-1.812C40.03,57.665,40.295,56.485,40.088,55.327z"
            ></path>
          </g>
        </g>
      </g>
      <g>
        <path
          fill="#3a3a3a"
          d="M36.146,50.557c-0.307-0.031-0.613-0.02-0.93,0.031l-0.153,0.02c-0.317,0.051-0.664,0.164-1.022,0.307    c-0.072,0.041-0.143,0.071-0.215,0.102l-2.402-13.194c0.409,0.184,0.818,0.388,1.226,0.583l1.4,0.664L36.146,50.557z"
        ></path>
      </g>
    </g>
  </g>
  <!-- <g
    id="SvgjsG24045"
    featurekey="duLK5n-0"
    transform="matrix(0.37316391632584617,0,0,0.37316391632584617,90.39547449825736,64.03715824853087)"
    fill="#3a3a3a"
  >
    <path d="M1.62 20 l0 -14.36 l5.82 0 c3.74 0 6.04 2.84 6.04 6.98 c0 3.22 -1.4 7.38 -6.12 7.38 l-5.74 0 z M3.56 7.300000000000001 l0 11.04 l3.76 0 c2.52 0 4.16 -1.98 4.16 -5.6 s-1.66 -5.44 -4.3 -5.44 l-3.62 0 z M36.756 18.28 l0 1.72 l-10.6 0 l0 -14.36 l10.46 0 l0 1.72 l-8.52 0 l0 4.4 l7.86 0 l0 1.72 l-7.86 0 l0 4.8 l8.66 0 z M61.251999999999995 9.96 l-1.88 0 c-0.54 -2.52 -2.64 -2.98 -4.02 -2.98 c-2.6 0 -4.7 1.92 -4.7 5.7 c0 3.38 1.2 5.98 4.76 5.98 c1.26 0 3.44 -0.6 4.1 -3.94 l1.88 0 c-0.8 5.42 -5.2 5.66 -6.28 5.66 c-3.26 0 -6.46 -2.12 -6.46 -7.64 c0 -4.42 2.52 -7.48 6.7 -7.48 c3.7 0 5.62 2.3 5.9 4.7 z M84.52799999999999 18.28 l0 1.72 l-10.6 0 l0 -14.36 l10.46 0 l0 1.72 l-8.52 0 l0 4.4 l7.86 0 l0 1.72 l-7.86 0 l0 4.8 l8.66 0 z M106.584 17.240000000000002 l0 -11.6 l1.88 0 l0 14.36 l-2.18 0 l-7.3 -11.6 l-0.04 0 l0 11.6 l-1.88 0 l0 -14.36 l2.3 0 l7.18 11.6 l0.04 0 z M120.25999999999999 7.359999999999999 l0 -1.72 l11.66 0 l0 1.72 l-4.86 0 l0 12.64 l-1.94 0 l0 -12.64 l-4.86 0 z M145.896 13.84 l0 6.16 l-1.94 0 l0 -14.36 l6.64 0 c2.36 0 4.72 0.82 4.72 3.86 c0 2.12 -1.08 2.9 -2 3.44 c0.82 0.34 1.64 0.7 1.72 2.7 l0.12 2.6 c0.02 0.8 0.12 1.1 0.72 1.44 l0 0.32 l-2.38 0 c-0.28 -0.88 -0.34 -3.06 -0.34 -3.6 c0 -1.18 -0.24 -2.56 -2.56 -2.56 l-4.7 0 z M145.896 7.300000000000001 l0 4.88 l4.5 0 c1.42 0 2.92 -0.36 2.92 -2.48 c0 -2.22 -1.62 -2.4 -2.58 -2.4 l-4.84 0 z M176.172 15.82 l-5.76 0 l-1.5 4.18 l-2 0 l5.4 -14.36 l2.2 0 l5.2 14.36 l-2.12 0 z M171.012 14.1 l4.46 0 l-2.12 -6.32 l-0.04 0 z M193.42800000000003 5.640000000000001 l0 12.64 l7.28 0 l0 1.72 l-9.22 0 l0 -14.36 l1.94 0 z M214.844 5.640000000000001 l0 14.36 l-1.94 0 l0 -14.36 l1.94 0 z M238.64000000000001 9.84 l-1.82 0 c-0.1 -2.22 -1.94 -2.92 -3.56 -2.92 c-1.22 0 -3.28 0.34 -3.28 2.52 c0 1.22 0.86 1.62 1.7 1.82 l4.1 0.94 c1.86 0.44 3.26 1.56 3.26 3.84 c0 3.4 -3.16 4.34 -5.62 4.34 c-2.66 0 -3.7 -0.8 -4.34 -1.38 c-1.22 -1.1 -1.46 -2.3 -1.46 -3.64 l1.82 0 c0 2.6 2.12 3.36 3.96 3.36 c1.4 0 3.76 -0.36 3.76 -2.42 c0 -1.5 -0.7 -1.98 -3.06 -2.54 l-2.94 -0.68 c-0.94 -0.22 -3.06 -0.88 -3.06 -3.38 c0 -2.24 1.46 -4.44 4.94 -4.44 c5.02 0 5.52 3 5.6 4.58 z M262.296 18.28 l0 1.72 l-10.6 0 l0 -14.36 l10.46 0 l0 1.72 l-8.52 0 l0 4.4 l7.86 0 l0 1.72 l-7.86 0 l0 4.8 l8.66 0 z M274.932 20 l0 -14.36 l5.82 0 c3.74 0 6.04 2.84 6.04 6.98 c0 3.22 -1.4 7.38 -6.12 7.38 l-5.74 0 z M276.872 7.300000000000001 l0 11.04 l3.76 0 c2.52 0 4.16 -1.98 4.16 -5.6 s-1.66 -5.44 -4.3 -5.44 l-3.62 0 z M322.844 15.82 l-5.76 0 l-1.5 4.18 l-2 0 l5.4 -14.36 l2.2 0 l5.2 14.36 l-2.12 0 z M317.68399999999997 14.1 l4.46 0 l-2.12 -6.32 l-0.04 0 z M338.26 20 l0 -14.36 l5.82 0 c3.74 0 6.04 2.84 6.04 6.98 c0 3.22 -1.4 7.38 -6.12 7.38 l-5.74 0 z M340.2 7.300000000000001 l0 11.04 l3.76 0 c2.52 0 4.16 -1.98 4.16 -5.6 s-1.66 -5.44 -4.3 -5.44 l-3.62 0 z M367.77599999999995 17.88 l4.06 -12.24 l2.18 0 l-5.24 14.36 l-2.06 0 l-5.24 -14.36 l2.16 0 l4.1 12.24 l0.04 0 z M396.73199999999997 18.28 l0 1.72 l-10.6 0 l0 -14.36 l10.46 0 l0 1.72 l-8.52 0 l0 4.4 l7.86 0 l0 1.72 l-7.86 0 l0 4.8 l8.66 0 z M411.448 13.84 l0 6.16 l-1.94 0 l0 -14.36 l6.64 0 c2.36 0 4.72 0.82 4.72 3.86 c0 2.12 -1.08 2.9 -2 3.44 c0.82 0.34 1.64 0.7 1.72 2.7 l0.12 2.6 c0.02 0.8 0.12 1.1 0.72 1.44 l0 0.32 l-2.38 0 c-0.28 -0.88 -0.34 -3.06 -0.34 -3.6 c0 -1.18 -0.24 -2.56 -2.56 -2.56 l-4.7 0 z M411.448 7.300000000000001 l0 4.88 l4.5 0 c1.42 0 2.92 -0.36 2.92 -2.48 c0 -2.22 -1.62 -2.4 -2.58 -2.4 l-4.84 0 z M432.46399999999994 7.359999999999999 l0 -1.72 l11.66 0 l0 1.72 l-4.86 0 l0 12.64 l-1.94 0 l0 -12.64 l-4.86 0 z M458.15999999999997 5.640000000000001 l0 14.36 l-1.94 0 l0 -14.36 l1.94 0 z M481.95599999999996 9.84 l-1.82 0 c-0.1 -2.22 -1.94 -2.92 -3.56 -2.92 c-1.22 0 -3.28 0.34 -3.28 2.52 c0 1.22 0.86 1.62 1.7 1.82 l4.1 0.94 c1.86 0.44 3.26 1.56 3.26 3.84 c0 3.4 -3.16 4.34 -5.62 4.34 c-2.66 0 -3.7 -0.8 -4.34 -1.38 c-1.22 -1.1 -1.46 -2.3 -1.46 -3.64 l1.82 0 c0 2.6 2.12 3.36 3.96 3.36 c1.4 0 3.76 -0.36 3.76 -2.42 c0 -1.5 -0.7 -1.98 -3.06 -2.54 l-2.94 -0.68 c-0.94 -0.22 -3.06 -0.88 -3.06 -3.38 c0 -2.24 1.46 -4.44 4.94 -4.44 c5.02 0 5.52 3 5.6 4.58 z M497.05199999999996 5.640000000000001 l0 14.36 l-1.94 0 l0 -14.36 l1.94 0 z M519.8879999999999 17.240000000000002 l0 -11.6 l1.88 0 l0 14.36 l-2.18 0 l-7.3 -11.6 l-0.04 0 l0 11.6 l-1.88 0 l0 -14.36 l2.3 0 l7.18 11.6 l0.04 0 z M541.064 13.98 l0 -1.66 l6.3 0 l0 7.68 l-1.26 0 l-0.46 -1.86 c-0.98 1.36 -2.78 2.24 -4.74 2.24 c-2.46 0 -3.66 -0.9 -4.4 -1.62 c-2.2 -2.08 -2.26 -4.54 -2.26 -6.06 c0 -3.5 2.12 -7.44 6.8 -7.44 c2.68 0 5.66 1.52 6.08 4.74 l-1.88 0 c-0.62 -2.5 -2.72 -3.02 -4.3 -3.02 c-2.58 0 -4.7 2.06 -4.7 5.82 c0 2.92 0.96 5.92 4.78 5.92 c0.72 0 1.88 -0.08 2.94 -0.92 c1.26 -1 1.58 -2.28 1.58 -3.82 l-4.48 0 z"></path>
  </g> -->
  <g
    id="SvgjsG24046"
    featurekey="nameLeftFeature-0"
    transform="matrix(3.9438018752309976,0,0,3.9438018752309976,89.45836731440008,-23.223909388449886)"
    fill="#3a3a3a"
  >
    <path d="M10.01 5.888999999999999 l0 2.5781 l-3.3496 0 l0 11.533 l-2.9004 0 l0 -11.533 l-3.3691 0 l0 -2.5781 l9.6191 0 z M19.677690625 20 l-3.6719 -6.2109 l-0.84961 0 l0 6.2109 l-2.9297 0 l0 -14.111 l5.1172 0 c3.1934 0 4.541 1.8848 4.541 4.2188 c0 1.8945 -1.0742 3.125 -2.9883 3.5352 l4.248 6.3574 l-3.4668 0 z M15.156290625 8.32 l0 3.3691 l1.7285 0 c1.5625 0 2.1973 -0.66406 2.1973 -1.6797 c0 -1.0059 -0.63477 -1.6895 -2.1973 -1.6895 l-1.7285 0 z M30.517596875 20.19531 c-3.0957 0 -5.5176 -1.582 -5.5176 -5.1367 l0 -9.1699 l2.9297 0 l0 8.7695 c0 2.1484 1.1426 2.9492 2.5879 2.9492 c1.4551 0 2.6074 -0.81055 2.6074 -2.9492 l0 -8.7695 l2.9297 0 l0 9.1699 c0 3.5547 -2.4316 5.1367 -5.5371 5.1367 z"></path>
  </g>
  <g
    id="SvgjsG24047"
    featurekey="nameRightFeature-0"
    transform="matrix(3.838000961912975,0,0,3.838000961912975,230.778330303121,-20.487810287725168)"
    fill="#3a3a3a"
  >
    <path d="M2.1777 13.6328 c0.63477 -2.7246 1.2695 -5.459 1.9043 -8.1836 l5.8594 0 c3.5059 0 5.957 1.8164 4.3457 5.791 c-0.41016 0.98633 -0.95703 1.7773 -1.582 2.3926 l0.88867 0 c-1.5332 1.4746 -3.6523 1.9727 -6.0938 1.9727 l-1.0156 4.3848 l-4.8633 0 l1.4648 -6.3574 l-0.9082 0 z M8.1055 9.072 c-0.20508 0.95703 -0.43945 1.9336 -0.6543 2.9297 c2.4316 -0.12695 3.3398 -2.9297 0.6543 -2.9297 z M15.898409375 13.3594 l-0.88867 0 l1.8164 -7.9785 c1.6992 0 4.7656 -0.16602 7.1875 0.15625 c2.1387 0.3125 4.209 1.1035 3.8477 3.6719 c-0.20508 1.5527 -1.3965 3.1445 -2.6855 4.1504 l0.87891 0 c-0.23438 0.17578 -0.46875 0.36133 -0.72266 0.48828 l3.3398 6.1914 l-5.8594 0 l-2.4414 -4.7754 l-1.084 4.7754 l-4.9219 0 z M20.937509375 8.994 l-0.5957 2.5195 c2.3535 0 3.6719 -2.5195 0.5957 -2.5195 z"></path>
  </g>
</svg>
